<svg xmlns="http://www.w3.org/2000/svg" xmlns:xlink="http://www.w3.org/1999/xlink" version="1.1" id="Layer_1" viewBox="0 0 509.287 509.287" xml:space="preserve">
<circle style="fill:transparent;" cx="254.644" cy="254.644" r="254.644"/>
<path style="fill:#616a6b;" d="M479.449,52.895H29.838c-9.155,0-16.615,7.46-16.615,16.615v369.928  c0,9.155,7.46,16.615,16.615,16.615h449.611c9.155,0,16.615-7.46,16.615-16.615V69.51C496.064,60.355,488.604,52.895,479.449,52.895  z"/>
<rect x="43.74" y="82.395" style="fill:#3399ff;" width="421.468" height="297.367"/>
<path style="fill:#ffffff;" d="M458.766,410.278H135.29v13.563h323.475c3.73,0,6.781-3.052,6.781-6.781  S462.495,410.278,458.766,410.278z"/>
<path style="fill:#2e4053;" d="M50.522,410.278c-3.73,0-6.781,3.052-6.781,6.781s3.052,6.781,6.781,6.781h84.429v-13.563H50.522z"/>
<path style="fill:#333842;" d="M136.646,403.158c-3.052,0-5.425,2.374-5.425,5.425v16.954c0,3.052,2.374,5.425,5.425,5.425  s5.425-2.374,5.425-5.425v-16.954C142.072,405.531,139.698,403.158,136.646,403.158z"/>
<circle style="fill:#FFFFFF;" cx="254.644" cy="231.248" r="97.992"/>
<polygon style="fill:#2e4053;" points="227.857,164.45 227.857,297.706 311.269,231.248 "/>
</svg>